<?xml version="1.0" encoding="UTF-8" standalone="no"?>
<!DOCTYPE svg PUBLIC "-//W3C//DTD SVG 1.1//EN" "http://www.w3.org/Graphics/SVG/1.1/DTD/svg11.dtd">
<svg version="1.1" xmlns="http://www.w3.org/2000/svg" xmlns:xlink="http://www.w3.org/1999/xlink" preserveAspectRatio="xMidYMid meet" viewBox="0 0 640 640" width="640" height="640"><defs><path d="M280.88 480L280.88 299.96L316.9 299.96L316.9 480L280.88 480Z" id="a7doPQkbqt"></path><path d="M203.89 623.41L434.05 623.41L434.05 632.94L203.89 632.94L203.89 623.41Z" id="a7fOLX3R6m"></path><path d="M203.89 585.32L434.05 585.32L434.05 623.41L203.89 623.41L203.89 585.32Z" id="a7I2kzPII"></path><path d="" id="d9JVqFNT"></path><path d="M434.05 585.32L345.16 545.63L329.29 475L265.79 475L254.57 545.63L203.89 585.32L434.05 585.32" id="c4bEVd84cW"></path><path d="M345.16 545.63L329.29 475L298.89 475L298.89 545.63L345.16 545.63Z" id="f104Q4Qxh"></path><path d="M340.89 299.96L369.89 299.96L369.89 307.66L340.89 307.66L340.89 299.96Z" id="a5mbX0CMc"></path><path d="M340.89 292.27L369.89 292.27L369.89 299.96L340.89 299.96L340.89 292.27Z" id="b78FtssdI"></path><path d="M316.9 299.96L316.9 232.63L237.55 259.63L237.55 299.96L316.9 299.96Z" id="d2A0LfxY3t"></path><path d="M316.9 299.96L316.9 367.3L237.55 340.3L237.55 299.96L316.9 299.96Z" id="k2v4auxp87"></path><path d="M316.9 299.96L338.44 299.96L338.44 367.3L316.9 367.3L316.9 299.96Z" id="c2kChwuGyG"></path><path d="M316.9 284.58L338.44 284.58L338.44 299.96L316.9 299.96L316.9 284.58Z" id="c3ZiJIMMLD"></path><path d="M316.9 272.08L338.44 272.08L338.44 284.58L316.9 284.58L316.9 272.08Z" id="c4i3Py2BE3"></path><path d="M316.9 256.69L338.44 256.69L338.44 272.08L316.9 272.08L316.9 256.69Z" id="bYB4VFHxw"></path><path d="M316.9 232.63L338.44 232.63L338.44 256.69L316.9 256.69L316.9 232.63Z" id="f53Gy8ULyI"></path><path d="M383.64 389.94C383.64 440.73 385.26 485.46 374.64 485.46C364.02 485.46 351.89 444.23 351.89 393.44C351.89 347.98 361.6 310.18 371.26 302.74C372.39 301.87 374.53 288.42 375.64 288.42C386.26 288.42 383.64 339.15 383.64 389.94Z" id="d23VJbRuN"></path><path d="M383.64 205.89C383.64 248.05 384.76 312.77 379.07 324.46C377.9 326.86 376.45 301.42 374.64 301.42C364.02 301.42 351.89 260.18 351.89 209.39C351.89 158.6 364.02 117.37 374.64 117.37C385.26 117.37 383.64 155.1 383.64 205.89Z" id="caPqM7gDq"></path><path d="M383.73 299.96C383.73 313.49 383.29 324.46 372.67 324.46C362.04 324.46 353.42 313.49 353.42 299.96C353.42 286.44 362.04 275.46 372.67 275.46C383.29 275.46 383.73 286.44 383.73 299.96Z" id="fgB9DDFBu"></path><path d="M413.73 299.96C413.82 221.09 413.87 171.79 413.89 152.07C413.9 145.22 412.22 138.48 409.01 132.44C405.69 126.19 402.77 120.69 399.98 115.46C395.36 106.75 386.11 101.52 376.27 102.03C373.69 102.16 378.24 101.92 374.7 102.11C367.45 102.48 360.61 105.63 355.61 110.9C352.66 114 350.52 116.26 347.29 119.65C343.19 123.97 340.9 129.7 340.9 135.66C340.9 157.57 340.9 212.34 340.89 299.96" id="c1A1xEF3AY"></path><path d="M413.73 299.96C413.82 378.84 413.87 428.14 413.89 447.86C413.9 454.71 412.22 461.45 409.01 467.49C405.69 473.74 402.77 479.23 399.98 484.47C395.36 493.17 386.11 498.41 376.27 497.9C373.69 497.77 378.24 498 374.7 497.82C367.45 497.45 360.61 494.3 355.61 489.03C352.66 485.93 350.51 483.67 347.29 480.28C343.19 475.96 340.9 470.22 340.9 464.26C340.9 442.36 340.9 387.59 340.89 299.96" id="aXZf7PfR4"></path></defs><g><g><g><use xlink:href="#a7doPQkbqt" opacity="1" fill="#de2323" fill-opacity="1"></use></g><g><use xlink:href="#a7fOLX3R6m" opacity="1" fill="#000000" fill-opacity="1"></use></g><g><use xlink:href="#a7I2kzPII" opacity="1" fill="#dedede" fill-opacity="1"></use></g><g><g><use xlink:href="#d9JVqFNT" opacity="1" fill-opacity="0" stroke="#000000" stroke-width="1" stroke-opacity="1"></use></g></g><g><use xlink:href="#c4bEVd84cW" opacity="1" fill="#aeaeae" fill-opacity="1"></use></g><g><use xlink:href="#f104Q4Qxh" opacity="1" fill="#9c9c9c" fill-opacity="1"></use></g><g><use xlink:href="#a5mbX0CMc" opacity="1" fill="#0015a7" fill-opacity="1"></use></g><g><use xlink:href="#b78FtssdI" opacity="1" fill="#0015a7" fill-opacity="1"></use></g><g><use xlink:href="#d2A0LfxY3t" opacity="1" fill="#aeaeae" fill-opacity="1"></use></g><g><use xlink:href="#k2v4auxp87" opacity="1" fill="#9c9c9c" fill-opacity="1"></use></g><g><use xlink:href="#c2kChwuGyG" opacity="1" fill="#0091a7" fill-opacity="1"></use></g><g><use xlink:href="#c3ZiJIMMLD" opacity="1" fill="#00b9d5" fill-opacity="1"></use></g><g><use xlink:href="#c4i3Py2BE3" opacity="1" fill="#00ddff" fill-opacity="1"></use></g><g><use xlink:href="#bYB4VFHxw" opacity="1" fill="#00b9d5" fill-opacity="1"></use></g><g><use xlink:href="#f53Gy8ULyI" opacity="1" fill="#0091a7" fill-opacity="1"></use></g><g><use xlink:href="#d23VJbRuN" opacity="1" fill="#007b8d" fill-opacity="1"></use></g><g><use xlink:href="#caPqM7gDq" opacity="1" fill="#007b8d" fill-opacity="1"></use></g><g><use xlink:href="#fgB9DDFBu" opacity="1" fill="#0091a7" fill-opacity="1"></use></g><g><g><use xlink:href="#c1A1xEF3AY" opacity="1" fill-opacity="0" stroke="#cecece" stroke-width="5" stroke-opacity="1"></use></g></g><g><g><use xlink:href="#aXZf7PfR4" opacity="1" fill-opacity="0" stroke="#cecece" stroke-width="5" stroke-opacity="1"></use></g></g></g></g></svg>